{
	"asset":{
		"generator":"Khronos glTF Blender I/O v4.1.63",
		"version":"2.0"
	},
	"scene":0,
	"scenes":[
		{
			"name":"Scene",
			"nodes":[
				0
			]
		}
	],
	"nodes":[
		{
			"mesh":0,
			"name":"SM_Prop_CardboardBox_Stack_02 (2)",
			"rotation":[
				0,
				0.6683999300003052,
				0,
				0.7438021302223206
			],
			"translation":[
				27.91699981689453,
				0.029999999329447746,
				9.812000274658203
			]
		}
	],
	"materials":[
		{
			"name":"M_PolygonConstruction_01_A.002",
			"pbrMetallicRoughness":{
				"baseColorTexture":{
					"index":0
				},
				"metallicFactor":0,
				"roughnessFactor":0.800000011920929
			}
		}
	],
	"meshes":[
		{
			"name":"SM_Prop_CardboardBox_Stack_02.002",
			"primitives":[
				{
					"attributes":{
						"POSITION":0,
						"NORMAL":1,
						"TEXCOORD_0":2,
						"TEXCOORD_1":3
					},
					"indices":4,
					"material":0
				}
			]
		}
	],
	"textures":[
		{
			"sampler":0,
			"source":0
		}
	],
	"images":[
		{
			"mimeType":"image/png",
			"name":"T_PolygonConstruction_01_A",
			"uri":"T_PolygonConstruction_01_A.png"
		}
	],
	"accessors":[
		{
			"bufferView":0,
			"componentType":5126,
			"count":1727,
			"max":[
				0.7746904492378235,
				1.549345850944519,
				0.7380555272102356
			],
			"min":[
				-0.7746905088424683,
				-4.2562184680944464e-17,
				-0.7380555272102356
			],
			"type":"VEC3"
		},
		{
			"bufferView":1,
			"componentType":5126,
			"count":1727,
			"type":"VEC3"
		},
		{
			"bufferView":2,
			"componentType":5126,
			"count":1727,
			"type":"VEC2"
		},
		{
			"bufferView":3,
			"componentType":5126,
			"count":1727,
			"type":"VEC2"
		},
		{
			"bufferView":4,
			"componentType":5123,
			"count":2610,
			"type":"SCALAR"
		}
	],
	"bufferViews":[
		{
			"buffer":0,
			"byteLength":20724,
			"byteOffset":0,
			"target":34962
		},
		{
			"buffer":0,
			"byteLength":20724,
			"byteOffset":20724,
			"target":34962
		},
		{
			"buffer":0,
			"byteLength":13816,
			"byteOffset":41448,
			"target":34962
		},
		{
			"buffer":0,
			"byteLength":13816,
			"byteOffset":55264,
			"target":34962
		},
		{
			"buffer":0,
			"byteLength":5220,
			"byteOffset":69080,
			"target":34963
		}
	],
	"samplers":[
		{
			"magFilter":9729,
			"minFilter":9987
		}
	],
	"buffers":[
		{
			"byteLength":74300,
			"uri":"cardboard_boxes.bin"
		}
	]
}
