{
	"asset":{
		"generator":"Khronos glTF Blender I/O v4.1.63",
		"version":"2.0"
	},
	"scene":0,
	"scenes":[
		{
			"name":"Scene",
			"nodes":[
				0
			]
		}
	],
	"nodes":[
		{
			"mesh":0,
			"name":"SM_Prop_Generator_Small_01",
			"rotation":[
				0,
				-0.6777025461196899,
				0,
				0.735336184501648
			],
			"translation":[
				37.724998474121094,
				0.1459999978542328,
				56.84000015258789
			]
		}
	],
	"materials":[
		{
			"name":"M_PolygonConstruction_01_A.002",
			"pbrMetallicRoughness":{
				"baseColorTexture":{
					"index":0
				},
				"metallicFactor":0,
				"roughnessFactor":0.800000011920929
			}
		}
	],
	"meshes":[
		{
			"name":"SM_Prop_Generator_Small_01.002",
			"primitives":[
				{
					"attributes":{
						"POSITION":0,
						"NORMAL":1,
						"TEXCOORD_0":2,
						"TEXCOORD_1":3
					},
					"indices":4,
					"material":0
				}
			]
		}
	],
	"textures":[
		{
			"sampler":0,
			"source":0
		}
	],
	"images":[
		{
			"mimeType":"image/png",
			"name":"T_PolygonConstruction_01_A",
			"uri":"T_PolygonConstruction_01_A.png"
		}
	],
	"accessors":[
		{
			"bufferView":0,
			"componentType":5126,
			"count":3400,
			"max":[
				0.2126200646162033,
				0.5607205629348755,
				0.32019996643066406
			],
			"min":[
				-0.2126200646162033,
				-0.0006106567452661693,
				-0.3201999068260193
			],
			"type":"VEC3"
		},
		{
			"bufferView":1,
			"componentType":5126,
			"count":3400,
			"type":"VEC3"
		},
		{
			"bufferView":2,
			"componentType":5126,
			"count":3400,
			"type":"VEC2"
		},
		{
			"bufferView":3,
			"componentType":5126,
			"count":3400,
			"type":"VEC2"
		},
		{
			"bufferView":4,
			"componentType":5123,
			"count":5394,
			"type":"SCALAR"
		}
	],
	"bufferViews":[
		{
			"buffer":0,
			"byteLength":40800,
			"byteOffset":0,
			"target":34962
		},
		{
			"buffer":0,
			"byteLength":40800,
			"byteOffset":40800,
			"target":34962
		},
		{
			"buffer":0,
			"byteLength":27200,
			"byteOffset":81600,
			"target":34962
		},
		{
			"buffer":0,
			"byteLength":27200,
			"byteOffset":108800,
			"target":34962
		},
		{
			"buffer":0,
			"byteLength":10788,
			"byteOffset":136000,
			"target":34963
		}
	],
	"samplers":[
		{
			"magFilter":9729,
			"minFilter":9987
		}
	],
	"buffers":[
		{
			"byteLength":146788,
			"uri":"eletronic.bin"
		}
	]
}
