{
	"asset":{
		"generator":"Khronos glTF Blender I/O v4.1.63",
		"version":"2.0"
	},
	"scene":0,
	"scenes":[
		{
			"name":"Scene",
			"nodes":[
				0,
				1
			]
		}
	],
	"nodes":[
		{
			"mesh":0,
			"name":"SM_Prop_Elevator_01_Mesh2",
			"rotation":[
				0,
				0,
				-1,
				0
			],
			"scale":[
				-1,
				-1,
				-1
			],
			"translation":[
				51.125,
				7.75,
				26.625
			]
		},
		{
			"mesh":1,
			"name":"SM_Prop_Elevator_01 (1)",
			"rotation":[
				0,
				0,
				-1,
				0
			],
			"scale":[
				-1,
				-1,
				-1
			],
			"translation":[
				51.125,
				7.75,
				26.625
			]
		}
	],
	"materials":[
		{
			"alphaMode":"BLEND",
			"name":"M_PolygonConstruction_Wire_01.002",
			"pbrMetallicRoughness":{
				"baseColorTexture":{
					"index":0
				},
				"metallicFactor":0,
				"roughnessFactor":0.5
			}
		},
		{
			"name":"M_PolygonConstruction_01_A.002",
			"pbrMetallicRoughness":{
				"baseColorTexture":{
					"index":1
				},
				"metallicFactor":0,
				"roughnessFactor":0.800000011920929
			}
		}
	],
	"meshes":[
		{
			"name":"SM_Prop_Elevator_01_Mesh.002",
			"primitives":[
				{
					"attributes":{
						"POSITION":0,
						"NORMAL":1,
						"TEXCOORD_0":2,
						"TEXCOORD_1":3
					},
					"indices":4,
					"material":0
				}
			]
		},
		{
			"name":"SM_Prop_Elevator_01.002",
			"primitives":[
				{
					"attributes":{
						"POSITION":5,
						"NORMAL":6,
						"TEXCOORD_0":7,
						"TEXCOORD_1":8
					},
					"indices":9,
					"material":1
				}
			]
		}
	],
	"textures":[
		{
			"sampler":0,
			"source":0
		},
		{
			"sampler":0,
			"source":1
		}
	],
	"images":[
		{
			"mimeType":"image/png",
			"name":"T_PolygonConstruction_Wire_01",
			"uri":"T_PolygonConstruction_Wire_01.png"
		},
		{
			"mimeType":"image/png",
			"name":"T_PolygonConstruction_01_A",
			"uri":"T_PolygonConstruction_01_A.png"
		}
	],
	"accessors":[
		{
			"bufferView":0,
			"componentType":5126,
			"count":45,
			"max":[
				-1.03517746925354,
				1.9746606349945068,
				1.6734130382537842
			],
			"min":[
				-2.951442003250122,
				0.740864098072052,
				-1.673411250114441
			],
			"type":"VEC3"
		},
		{
			"bufferView":1,
			"componentType":5126,
			"count":45,
			"type":"VEC3"
		},
		{
			"bufferView":2,
			"componentType":5126,
			"count":45,
			"type":"VEC2"
		},
		{
			"bufferView":3,
			"componentType":5126,
			"count":45,
			"type":"VEC2"
		},
		{
			"bufferView":4,
			"componentType":5123,
			"count":69,
			"type":"SCALAR"
		},
		{
			"bufferView":5,
			"componentType":5126,
			"count":1520,
			"max":[
				-0.928873598575592,
				2.4604649543762207,
				1.7558536529541016
			],
			"min":[
				-3.057746410369873,
				-0.06198651343584061,
				-1.7531704902648926
			],
			"type":"VEC3"
		},
		{
			"bufferView":6,
			"componentType":5126,
			"count":1520,
			"type":"VEC3"
		},
		{
			"bufferView":7,
			"componentType":5126,
			"count":1520,
			"type":"VEC2"
		},
		{
			"bufferView":8,
			"componentType":5126,
			"count":1520,
			"type":"VEC2"
		},
		{
			"bufferView":9,
			"componentType":5123,
			"count":2412,
			"type":"SCALAR"
		}
	],
	"bufferViews":[
		{
			"buffer":0,
			"byteLength":540,
			"byteOffset":0,
			"target":34962
		},
		{
			"buffer":0,
			"byteLength":540,
			"byteOffset":540,
			"target":34962
		},
		{
			"buffer":0,
			"byteLength":360,
			"byteOffset":1080,
			"target":34962
		},
		{
			"buffer":0,
			"byteLength":360,
			"byteOffset":1440,
			"target":34962
		},
		{
			"buffer":0,
			"byteLength":138,
			"byteOffset":1800,
			"target":34963
		},
		{
			"buffer":0,
			"byteLength":18240,
			"byteOffset":1940,
			"target":34962
		},
		{
			"buffer":0,
			"byteLength":18240,
			"byteOffset":20180,
			"target":34962
		},
		{
			"buffer":0,
			"byteLength":12160,
			"byteOffset":38420,
			"target":34962
		},
		{
			"buffer":0,
			"byteLength":12160,
			"byteOffset":50580,
			"target":34962
		},
		{
			"buffer":0,
			"byteLength":4824,
			"byteOffset":62740,
			"target":34963
		}
	],
	"samplers":[
		{
			"magFilter":9729,
			"minFilter":9987
		}
	],
	"buffers":[
		{
			"byteLength":67564,
			"uri":"elevator.bin"
		}
	]
}
