{
	"asset":{
		"generator":"Khronos glTF Blender I/O v4.1.63",
		"version":"2.0"
	},
	"scene":0,
	"scenes":[
		{
			"name":"Scene",
			"nodes":[
				0
			]
		}
	],
	"nodes":[
		{
			"mesh":0,
			"name":"SM_Prop_Tractor_Tire_01",
			"translation":[
				62.714447021484375,
				0.875,
				47.36677932739258
			]
		}
	],
	"materials":[
		{
			"name":"M_PolygonConstruction_01_A.002",
			"pbrMetallicRoughness":{
				"baseColorTexture":{
					"index":0
				},
				"metallicFactor":0,
				"roughnessFactor":0.800000011920929
			}
		}
	],
	"meshes":[
		{
			"name":"SM_Prop_Tractor_Tire_01.002",
			"primitives":[
				{
					"attributes":{
						"POSITION":0,
						"NORMAL":1,
						"TEXCOORD_0":2,
						"TEXCOORD_1":3
					},
					"indices":4,
					"material":0
				}
			]
		}
	],
	"textures":[
		{
			"sampler":0,
			"source":0
		}
	],
	"images":[
		{
			"mimeType":"image/png",
			"name":"T_PolygonConstruction_01_A",
			"uri":"T_PolygonConstruction_01_A.png"
		}
	],
	"accessors":[
		{
			"bufferView":0,
			"componentType":5126,
			"count":3088,
			"max":[
				0.8621413707733154,
				0.5250422358512878,
				0.8621399998664856
			],
			"min":[
				-0.8621412515640259,
				-7.629394360719743e-08,
				-0.8621421456336975
			],
			"type":"VEC3"
		},
		{
			"bufferView":1,
			"componentType":5126,
			"count":3088,
			"type":"VEC3"
		},
		{
			"bufferView":2,
			"componentType":5126,
			"count":3088,
			"type":"VEC2"
		},
		{
			"bufferView":3,
			"componentType":5126,
			"count":3088,
			"type":"VEC2"
		},
		{
			"bufferView":4,
			"componentType":5123,
			"count":4566,
			"type":"SCALAR"
		}
	],
	"bufferViews":[
		{
			"buffer":0,
			"byteLength":37056,
			"byteOffset":0,
			"target":34962
		},
		{
			"buffer":0,
			"byteLength":37056,
			"byteOffset":37056,
			"target":34962
		},
		{
			"buffer":0,
			"byteLength":24704,
			"byteOffset":74112,
			"target":34962
		},
		{
			"buffer":0,
			"byteLength":24704,
			"byteOffset":98816,
			"target":34962
		},
		{
			"buffer":0,
			"byteLength":9132,
			"byteOffset":123520,
			"target":34963
		}
	],
	"samplers":[
		{
			"magFilter":9729,
			"minFilter":9987
		}
	],
	"buffers":[
		{
			"byteLength":132652,
			"uri":"tire.bin"
		}
	]
}
