{
	"asset":{
		"generator":"Khronos glTF Blender I/O v4.1.63",
		"version":"2.0"
	},
	"scene":0,
	"scenes":[
		{
			"name":"Scene",
			"nodes":[
				0
			]
		}
	],
	"nodes":[
		{
			"mesh":0,
			"name":"SM_Prop_TireStack_01",
			"translation":[
				64.10694885253906,
				0.875,
				47.462158203125
			]
		}
	],
	"materials":[
		{
			"name":"M_PolygonConstruction_01_A.002",
			"pbrMetallicRoughness":{
				"baseColorTexture":{
					"index":0
				},
				"metallicFactor":0,
				"roughnessFactor":0.800000011920929
			}
		}
	],
	"meshes":[
		{
			"name":"SM_Prop_TireStack_01.002",
			"primitives":[
				{
					"attributes":{
						"POSITION":0,
						"NORMAL":1,
						"TEXCOORD_0":2,
						"TEXCOORD_1":3
					},
					"indices":4,
					"material":0
				}
			]
		}
	],
	"textures":[
		{
			"sampler":0,
			"source":0
		}
	],
	"images":[
		{
			"mimeType":"image/png",
			"name":"T_PolygonConstruction_01_A",
			"uri":"T_PolygonConstruction_01_A.png"
		}
	],
	"accessors":[
		{
			"bufferView":0,
			"componentType":5126,
			"count":1168,
			"max":[
				0.7147167921066284,
				0.6827341914176941,
				0.36601224541664124
			],
			"min":[
				-0.3622715175151825,
				-0.03251037374138832,
				-0.36601194739341736
			],
			"type":"VEC3"
		},
		{
			"bufferView":1,
			"componentType":5126,
			"count":1168,
			"type":"VEC3"
		},
		{
			"bufferView":2,
			"componentType":5126,
			"count":1168,
			"type":"VEC2"
		},
		{
			"bufferView":3,
			"componentType":5126,
			"count":1168,
			"type":"VEC2"
		},
		{
			"bufferView":4,
			"componentType":5123,
			"count":1728,
			"type":"SCALAR"
		}
	],
	"bufferViews":[
		{
			"buffer":0,
			"byteLength":14016,
			"byteOffset":0,
			"target":34962
		},
		{
			"buffer":0,
			"byteLength":14016,
			"byteOffset":14016,
			"target":34962
		},
		{
			"buffer":0,
			"byteLength":9344,
			"byteOffset":28032,
			"target":34962
		},
		{
			"buffer":0,
			"byteLength":9344,
			"byteOffset":37376,
			"target":34962
		},
		{
			"buffer":0,
			"byteLength":3456,
			"byteOffset":46720,
			"target":34963
		}
	],
	"samplers":[
		{
			"magFilter":9729,
			"minFilter":9987
		}
	],
	"buffers":[
		{
			"byteLength":50176,
			"uri":"tires.bin"
		}
	]
}
