{
	"asset":{
		"generator":"Khronos glTF Blender I/O v4.1.63",
		"version":"2.0"
	},
	"scene":0,
	"scenes":[
		{
			"name":"Scene",
			"nodes":[
				0
			]
		}
	],
	"nodes":[
		{
			"mesh":0,
			"name":"SM_Prop_PalletStack_02",
			"translation":[
				41.20600128173828,
				0.07000000029802322,
				5.515999794006348
			]
		}
	],
	"materials":[
		{
			"name":"M_PolygonConstruction_01_A.002",
			"pbrMetallicRoughness":{
				"baseColorTexture":{
					"index":0
				},
				"metallicFactor":0,
				"roughnessFactor":0.800000011920929
			}
		}
	],
	"meshes":[
		{
			"name":"SM_Prop_PalletStack_02.002",
			"primitives":[
				{
					"attributes":{
						"POSITION":0,
						"NORMAL":1,
						"TEXCOORD_0":2,
						"TEXCOORD_1":3
					},
					"indices":4,
					"material":0
				}
			]
		}
	],
	"textures":[
		{
			"sampler":0,
			"source":0
		}
	],
	"images":[
		{
			"mimeType":"image/png",
			"name":"T_PolygonConstruction_01_A",
			"uri":"T_PolygonConstruction_01_A.png"
		}
	],
	"accessors":[
		{
			"bufferView":0,
			"componentType":5126,
			"count":2088,
			"max":[
				0.8393261432647705,
				0.9388177394866943,
				0.8177520036697388
			],
			"min":[
				-0.8393261432647705,
				-4.238928077186373e-17,
				-0.8177520036697388
			],
			"type":"VEC3"
		},
		{
			"bufferView":1,
			"componentType":5126,
			"count":2088,
			"type":"VEC3"
		},
		{
			"bufferView":2,
			"componentType":5126,
			"count":2088,
			"type":"VEC2"
		},
		{
			"bufferView":3,
			"componentType":5126,
			"count":2088,
			"type":"VEC2"
		},
		{
			"bufferView":4,
			"componentType":5123,
			"count":3528,
			"type":"SCALAR"
		}
	],
	"bufferViews":[
		{
			"buffer":0,
			"byteLength":25056,
			"byteOffset":0,
			"target":34962
		},
		{
			"buffer":0,
			"byteLength":25056,
			"byteOffset":25056,
			"target":34962
		},
		{
			"buffer":0,
			"byteLength":16704,
			"byteOffset":50112,
			"target":34962
		},
		{
			"buffer":0,
			"byteLength":16704,
			"byteOffset":66816,
			"target":34962
		},
		{
			"buffer":0,
			"byteLength":7056,
			"byteOffset":83520,
			"target":34963
		}
	],
	"samplers":[
		{
			"magFilter":9729,
			"minFilter":9987
		}
	],
	"buffers":[
		{
			"byteLength":90576,
			"uri":"wooden_pallet.bin"
		}
	]
}
