{
	"asset":{
		"generator":"Khronos glTF Blender I/O v4.2.57",
		"version":"2.0"
	},
	"extensionsUsed":[
		"KHR_materials_clearcoat"
	],
	"scene":0,
	"scenes":[
		{
			"name":"Scene",
			"nodes":[
				0,
				1,
				2,
				3,
				4
			]
		}
	],
	"nodes":[
		{
			"mesh":0,
			"name":"SM_Prop_Wood_Walkway_01",
			"rotation":[
				0.07680411636829376,
				-0.8813318610191345,
				0.22305786609649658,
				0.4093904197216034
			],
			"translation":[
				-1.7776691913604736,
				0.8887858986854553,
				-1.1292846202850342
			]
		},
		{
			"mesh":1,
			"name":"SM_Prop_Wood_Frame_01",
			"translation":[
				-0.13800013065338135,
				0.03231281042098999,
				-0.07368838787078857
			]
		},
		{
			"mesh":2,
			"name":"SM_Prop_Plywood_Stack_01",
			"rotation":[
				0,
				-0.16084468364715576,
				0,
				0.9869797229766846
			],
			"translation":[
				1.2342824935913086,
				0.4379584789276123,
				0.6010818481445312
			]
		},
		{
			"mesh":3,
			"name":"SM_Prop_CardboardBox_Stack_03",
			"rotation":[
				0,
				-0.4107936918735504,
				0,
				0.9117283225059509
			],
			"translation":[
				0.047873497009277344,
				0.30795806646347046,
				-1.2762842178344727
			]
		},
		{
			"mesh":4,
			"name":"SM_Prop_CardboardBox_Stack_02 (3)",
			"rotation":[
				0,
				-0.18119226396083832,
				0,
				0.9834477305412292
			],
			"translation":[
				-0.6208500862121582,
				0.2319244146347046,
				0.6061277389526367
			]
		}
	],
	"materials":[
		{
			"extensions":{
				"KHR_materials_clearcoat":{
					"clearcoatRoughnessFactor":0
				}
			},
			"name":"M_PolygonConstruction_01_A.002",
			"pbrMetallicRoughness":{
				"baseColorTexture":{
					"index":0
				},
				"metallicFactor":0,
				"roughnessFactor":0.800000011920929
			}
		}
	],
	"meshes":[
		{
			"name":"SM_Prop_Wood_Walkway_01.002",
			"primitives":[
				{
					"attributes":{
						"POSITION":0,
						"NORMAL":1,
						"TEXCOORD_0":2,
						"TEXCOORD_1":3
					},
					"indices":4,
					"material":0
				}
			]
		},
		{
			"name":"SM_Prop_Wood_Frame_01.002",
			"primitives":[
				{
					"attributes":{
						"POSITION":5,
						"NORMAL":6,
						"TEXCOORD_0":7,
						"TEXCOORD_1":8
					},
					"indices":9,
					"material":0
				}
			]
		},
		{
			"name":"SM_Prop_Plywood_Stack_01.002",
			"primitives":[
				{
					"attributes":{
						"POSITION":10,
						"NORMAL":11,
						"TEXCOORD_0":12,
						"TEXCOORD_1":13
					},
					"indices":14,
					"material":0
				}
			]
		},
		{
			"name":"SM_Prop_CardboardBox_Stack_03.002",
			"primitives":[
				{
					"attributes":{
						"POSITION":15,
						"NORMAL":16,
						"TEXCOORD_0":17,
						"TEXCOORD_1":18
					},
					"indices":19,
					"material":0
				}
			]
		},
		{
			"name":"SM_Prop_CardboardBox_Stack_02.002",
			"primitives":[
				{
					"attributes":{
						"POSITION":20,
						"NORMAL":21,
						"TEXCOORD_0":22,
						"TEXCOORD_1":23
					},
					"indices":24,
					"material":0
				}
			]
		}
	],
	"textures":[
		{
			"sampler":0,
			"source":0
		}
	],
	"images":[
		{
			"mimeType":"image/png",
			"name":"T_PolygonConstruction_01_A",
			"uri":"T_PolygonConstruction_01_A.png"
		}
	],
	"accessors":[
		{
			"bufferView":0,
			"componentType":5126,
			"count":384,
			"max":[
				0.866477370262146,
				0.08925685286521912,
				1.3812289237976074
			],
			"min":[
				-0.9049105644226074,
				-0.23633873462677002,
				-1.473968505859375
			],
			"type":"VEC3"
		},
		{
			"bufferView":1,
			"componentType":5126,
			"count":384,
			"type":"VEC3"
		},
		{
			"bufferView":2,
			"componentType":5126,
			"count":384,
			"type":"VEC2"
		},
		{
			"bufferView":3,
			"componentType":5126,
			"count":384,
			"type":"VEC2"
		},
		{
			"bufferView":4,
			"componentType":5123,
			"count":618,
			"type":"SCALAR"
		},
		{
			"bufferView":5,
			"componentType":5126,
			"count":494,
			"max":[
				1.4142510890960693,
				0.2578125,
				1.5267268419265747
			],
			"min":[
				-1.4142510890960693,
				-8.436603664607991e-17,
				-1.5267276763916016
			],
			"type":"VEC3"
		},
		{
			"bufferView":6,
			"componentType":5126,
			"count":494,
			"type":"VEC3"
		},
		{
			"bufferView":7,
			"componentType":5126,
			"count":494,
			"type":"VEC2"
		},
		{
			"bufferView":8,
			"componentType":5126,
			"count":494,
			"type":"VEC2"
		},
		{
			"bufferView":9,
			"componentType":5123,
			"count":804,
			"type":"SCALAR"
		},
		{
			"bufferView":10,
			"componentType":5126,
			"count":453,
			"max":[
				0.9235205054283142,
				0.5216913819313049,
				1.531756043434143
			],
			"min":[
				-0.9235253930091858,
				-8.401427974495296e-17,
				-1.5317569971084595
			],
			"type":"VEC3"
		},
		{
			"bufferView":11,
			"componentType":5126,
			"count":453,
			"type":"VEC3"
		},
		{
			"bufferView":12,
			"componentType":5126,
			"count":453,
			"type":"VEC2"
		},
		{
			"bufferView":13,
			"componentType":5126,
			"count":453,
			"type":"VEC2"
		},
		{
			"bufferView":14,
			"componentType":5123,
			"count":666,
			"type":"SCALAR"
		},
		{
			"bufferView":15,
			"componentType":5126,
			"count":1202,
			"max":[
				0.7204926609992981,
				1.5594936609268188,
				0.7122482061386108
			],
			"min":[
				-0.7204926609992981,
				-4.120293833734018e-17,
				-0.7122482061386108
			],
			"type":"VEC3"
		},
		{
			"bufferView":16,
			"componentType":5126,
			"count":1202,
			"type":"VEC3"
		},
		{
			"bufferView":17,
			"componentType":5126,
			"count":1202,
			"type":"VEC2"
		},
		{
			"bufferView":18,
			"componentType":5126,
			"count":1202,
			"type":"VEC2"
		},
		{
			"bufferView":19,
			"componentType":5123,
			"count":1746,
			"type":"SCALAR"
		},
		{
			"bufferView":20,
			"componentType":5126,
			"count":1727,
			"max":[
				0.7746904492378235,
				1.549345850944519,
				0.7380555272102356
			],
			"min":[
				-0.7746905088424683,
				-4.2562184680944464e-17,
				-0.7380555272102356
			],
			"type":"VEC3"
		},
		{
			"bufferView":21,
			"componentType":5126,
			"count":1727,
			"type":"VEC3"
		},
		{
			"bufferView":22,
			"componentType":5126,
			"count":1727,
			"type":"VEC2"
		},
		{
			"bufferView":23,
			"componentType":5126,
			"count":1727,
			"type":"VEC2"
		},
		{
			"bufferView":24,
			"componentType":5123,
			"count":2610,
			"type":"SCALAR"
		}
	],
	"bufferViews":[
		{
			"buffer":0,
			"byteLength":4608,
			"byteOffset":0,
			"target":34962
		},
		{
			"buffer":0,
			"byteLength":4608,
			"byteOffset":4608,
			"target":34962
		},
		{
			"buffer":0,
			"byteLength":3072,
			"byteOffset":9216,
			"target":34962
		},
		{
			"buffer":0,
			"byteLength":3072,
			"byteOffset":12288,
			"target":34962
		},
		{
			"buffer":0,
			"byteLength":1236,
			"byteOffset":15360,
			"target":34963
		},
		{
			"buffer":0,
			"byteLength":5928,
			"byteOffset":16596,
			"target":34962
		},
		{
			"buffer":0,
			"byteLength":5928,
			"byteOffset":22524,
			"target":34962
		},
		{
			"buffer":0,
			"byteLength":3952,
			"byteOffset":28452,
			"target":34962
		},
		{
			"buffer":0,
			"byteLength":3952,
			"byteOffset":32404,
			"target":34962
		},
		{
			"buffer":0,
			"byteLength":1608,
			"byteOffset":36356,
			"target":34963
		},
		{
			"buffer":0,
			"byteLength":5436,
			"byteOffset":37964,
			"target":34962
		},
		{
			"buffer":0,
			"byteLength":5436,
			"byteOffset":43400,
			"target":34962
		},
		{
			"buffer":0,
			"byteLength":3624,
			"byteOffset":48836,
			"target":34962
		},
		{
			"buffer":0,
			"byteLength":3624,
			"byteOffset":52460,
			"target":34962
		},
		{
			"buffer":0,
			"byteLength":1332,
			"byteOffset":56084,
			"target":34963
		},
		{
			"buffer":0,
			"byteLength":14424,
			"byteOffset":57416,
			"target":34962
		},
		{
			"buffer":0,
			"byteLength":14424,
			"byteOffset":71840,
			"target":34962
		},
		{
			"buffer":0,
			"byteLength":9616,
			"byteOffset":86264,
			"target":34962
		},
		{
			"buffer":0,
			"byteLength":9616,
			"byteOffset":95880,
			"target":34962
		},
		{
			"buffer":0,
			"byteLength":3492,
			"byteOffset":105496,
			"target":34963
		},
		{
			"buffer":0,
			"byteLength":20724,
			"byteOffset":108988,
			"target":34962
		},
		{
			"buffer":0,
			"byteLength":20724,
			"byteOffset":129712,
			"target":34962
		},
		{
			"buffer":0,
			"byteLength":13816,
			"byteOffset":150436,
			"target":34962
		},
		{
			"buffer":0,
			"byteLength":13816,
			"byteOffset":164252,
			"target":34962
		},
		{
			"buffer":0,
			"byteLength":5220,
			"byteOffset":178068,
			"target":34963
		}
	],
	"samplers":[
		{
			"magFilter":9729,
			"minFilter":9987
		}
	],
	"buffers":[
		{
			"byteLength":183288,
			"uri":"wood.bin"
		}
	]
}
