{
	"asset":{
		"generator":"Khronos glTF Blender I/O v4.2.57",
		"version":"2.0"
	},
	"extensionsUsed":[
		"KHR_materials_clearcoat"
	],
	"scene":0,
	"scenes":[
		{
			"name":"Scene",
			"nodes":[
				0
			]
		}
	],
	"nodes":[
		{
			"mesh":0,
			"name":"SM_Prop_BarrelStack_01",
			"translation":[
				0.003208339214324951,
				0.07899999618530273,
				-0.059101372957229614
			]
		}
	],
	"materials":[
		{
			"extensions":{
				"KHR_materials_clearcoat":{
					"clearcoatRoughnessFactor":0
				}
			},
			"name":"M_PolygonConstruction_01_A.002",
			"pbrMetallicRoughness":{
				"baseColorTexture":{
					"index":0
				},
				"metallicFactor":0,
				"roughnessFactor":0.800000011920929
			}
		}
	],
	"meshes":[
		{
			"name":"SM_Prop_BarrelStack_01.002",
			"primitives":[
				{
					"attributes":{
						"POSITION":0,
						"NORMAL":1,
						"TEXCOORD_0":2,
						"TEXCOORD_1":3
					},
					"indices":4,
					"material":0
				}
			]
		}
	],
	"textures":[
		{
			"sampler":0,
			"source":0
		}
	],
	"images":[
		{
			"mimeType":"image/png",
			"name":"T_PolygonConstruction_01_A",
			"uri":"T_PolygonConstruction_01_A.png"
		}
	],
	"accessors":[
		{
			"bufferView":0,
			"componentType":5126,
			"count":2646,
			"max":[
				0.7328259348869324,
				1.2797120809555054,
				0.7200878858566284
			],
			"min":[
				-0.7328259348869324,
				-4.295024157607269e-17,
				-0.7200878858566284
			],
			"type":"VEC3"
		},
		{
			"bufferView":1,
			"componentType":5126,
			"count":2646,
			"type":"VEC3"
		},
		{
			"bufferView":2,
			"componentType":5126,
			"count":2646,
			"type":"VEC2"
		},
		{
			"bufferView":3,
			"componentType":5126,
			"count":2646,
			"type":"VEC2"
		},
		{
			"bufferView":4,
			"componentType":5123,
			"count":4074,
			"type":"SCALAR"
		}
	],
	"bufferViews":[
		{
			"buffer":0,
			"byteLength":31752,
			"byteOffset":0,
			"target":34962
		},
		{
			"buffer":0,
			"byteLength":31752,
			"byteOffset":31752,
			"target":34962
		},
		{
			"buffer":0,
			"byteLength":21168,
			"byteOffset":63504,
			"target":34962
		},
		{
			"buffer":0,
			"byteLength":21168,
			"byteOffset":84672,
			"target":34962
		},
		{
			"buffer":0,
			"byteLength":8148,
			"byteOffset":105840,
			"target":34963
		}
	],
	"samplers":[
		{
			"magFilter":9729,
			"minFilter":9987
		}
	],
	"buffers":[
		{
			"byteLength":113988,
			"uri":"barrels.bin"
		}
	]
}
