{
	"asset":{
		"generator":"Khronos glTF Blender I/O v4.2.57",
		"version":"2.0"
	},
	"extensionsUsed":[
		"KHR_materials_specular"
	],
	"scene":0,
	"scenes":[
		{
			"name":"Scene",
			"nodes":[
				0
			]
		}
	],
	"nodes":[
		{
			"mesh":0,
			"name":"SM_Env_DirtRoad_End_01",
			"rotation":[
				0,
				-0.7077000737190247,
				0,
				0.706512987613678
			],
			"scale":[
				0.8500000238418579,
				0.8500000238418579,
				0.8500000238418579
			],
			"translation":[
				-0.011487841606140137,
				0.09502054750919342,
				-0.1045161783695221
			]
		}
	],
	"materials":[
		{
			"doubleSided":true,
			"extensions":{
				"KHR_materials_specular":{
					"specularColorFactor":[
						0.0017581313150003552,
						0.0017581313150003552,
						0.0017581313150003552
					]
				}
			},
			"name":"Material.001",
			"pbrMetallicRoughness":{
				"baseColorFactor":[
					0.009501133114099503,
					0.009501133114099503,
					0.009501133114099503,
					1
				],
				"metallicFactor":0.26771652698516846,
				"roughnessFactor":0.5
			}
		}
	],
	"meshes":[
		{
			"name":"SM_Env_DirtRoad_End_01.001",
			"primitives":[
				{
					"attributes":{
						"POSITION":0,
						"NORMAL":1,
						"TEXCOORD_0":2,
						"TEXCOORD_1":3
					},
					"indices":4,
					"material":0
				}
			]
		}
	],
	"accessors":[
		{
			"bufferView":0,
			"componentType":5126,
			"count":703,
			"max":[
				5.0773091316223145,
				0.18924032151699066,
				8.846158981323242
			],
			"min":[
				-4.762571334838867,
				-0.2074875682592392,
				-6.16202449798584
			],
			"type":"VEC3"
		},
		{
			"bufferView":1,
			"componentType":5126,
			"count":703,
			"type":"VEC3"
		},
		{
			"bufferView":2,
			"componentType":5126,
			"count":703,
			"type":"VEC2"
		},
		{
			"bufferView":3,
			"componentType":5126,
			"count":703,
			"type":"VEC2"
		},
		{
			"bufferView":4,
			"componentType":5123,
			"count":711,
			"type":"SCALAR"
		}
	],
	"bufferViews":[
		{
			"buffer":0,
			"byteLength":8436,
			"byteOffset":0,
			"target":34962
		},
		{
			"buffer":0,
			"byteLength":8436,
			"byteOffset":8436,
			"target":34962
		},
		{
			"buffer":0,
			"byteLength":5624,
			"byteOffset":16872,
			"target":34962
		},
		{
			"buffer":0,
			"byteLength":5624,
			"byteOffset":22496,
			"target":34962
		},
		{
			"buffer":0,
			"byteLength":1422,
			"byteOffset":28120,
			"target":34963
		}
	],
	"buffers":[
		{
			"byteLength":29544,
			"uri":"oil.bin"
		}
	]
}
