{
	"asset":{
		"generator":"Khronos glTF Blender I/O v4.2.57",
		"version":"2.0"
	},
	"extensionsUsed":[
		"KHR_materials_clearcoat"
	],
	"scene":0,
	"scenes":[
		{
			"name":"Scene",
			"nodes":[
				0
			]
		}
	],
	"nodes":[
		{
			"mesh":0,
			"name":"SM_Prop_Floodlights_01",
			"rotation":[
				0,
				0.835715651512146,
				0,
				0.5491623878479004
			],
			"translation":[
				-0.04715731739997864,
				1.6176446676254272,
				0.10912841558456421
			]
		}
	],
	"materials":[
		{
			"extensions":{
				"KHR_materials_clearcoat":{
					"clearcoatRoughnessFactor":0
				}
			},
			"name":"M_PolygonConstruction_01_A.002",
			"pbrMetallicRoughness":{
				"baseColorTexture":{
					"index":0
				},
				"metallicFactor":0,
				"roughnessFactor":0.800000011920929
			}
		}
	],
	"meshes":[
		{
			"name":"SM_Prop_Floodlights_01.002",
			"primitives":[
				{
					"attributes":{
						"POSITION":0,
						"NORMAL":1,
						"TEXCOORD_0":2,
						"TEXCOORD_1":3
					},
					"indices":4,
					"material":0
				}
			]
		}
	],
	"textures":[
		{
			"sampler":0,
			"source":0
		}
	],
	"images":[
		{
			"mimeType":"image/png",
			"name":"T_PolygonConstruction_01_A",
			"uri":"T_PolygonConstruction_01_A.png"
		}
	],
	"accessors":[
		{
			"bufferView":0,
			"componentType":5126,
			"count":5494,
			"max":[
				0.726250946521759,
				2.5403971672058105,
				2.232001304626465
			],
			"min":[
				-0.6913761496543884,
				-1.4036446809768677,
				-1.2270255088806152
			],
			"type":"VEC3"
		},
		{
			"bufferView":1,
			"componentType":5126,
			"count":5494,
			"type":"VEC3"
		},
		{
			"bufferView":2,
			"componentType":5126,
			"count":5494,
			"type":"VEC2"
		},
		{
			"bufferView":3,
			"componentType":5126,
			"count":5494,
			"type":"VEC2"
		},
		{
			"bufferView":4,
			"componentType":5123,
			"count":9372,
			"type":"SCALAR"
		}
	],
	"bufferViews":[
		{
			"buffer":0,
			"byteLength":65928,
			"byteOffset":0,
			"target":34962
		},
		{
			"buffer":0,
			"byteLength":65928,
			"byteOffset":65928,
			"target":34962
		},
		{
			"buffer":0,
			"byteLength":43952,
			"byteOffset":131856,
			"target":34962
		},
		{
			"buffer":0,
			"byteLength":43952,
			"byteOffset":175808,
			"target":34962
		},
		{
			"buffer":0,
			"byteLength":18744,
			"byteOffset":219760,
			"target":34963
		}
	],
	"samplers":[
		{
			"magFilter":9729,
			"minFilter":9987
		}
	],
	"buffers":[
		{
			"byteLength":238504,
			"uri":"generator.bin"
		}
	]
}
