{
	"asset":{
		"generator":"Khronos glTF Blender I/O v4.2.57",
		"version":"2.0"
	},
	"extensionsUsed":[
		"KHR_materials_clearcoat"
	],
	"scene":0,
	"scenes":[
		{
			"name":"Scene",
			"nodes":[
				0,
				1,
				2,
				3
			]
		}
	],
	"nodes":[
		{
			"mesh":0,
			"name":"SM_Prop_Tractor_Tire_01",
			"translation":[
				-0.9101466536521912,
				0.02408754825592041,
				-0.05732858180999756
			]
		},
		{
			"mesh":1,
			"name":"SM_Prop_TireStack_01",
			"translation":[
				0.48235517740249634,
				0.02408754825592041,
				0.038050293922424316
			]
		},
		{
			"mesh":2,
			"name":"SM_Prop_Tractor_Tire_01.001",
			"rotation":[
				-0.2485836148262024,
				-0.3916442096233368,
				-0.11076440662145615,
				0.8789495229721069
			],
			"translation":[
				-0.3689408302307129,
				0.02408754825592041,
				-0.9138332605361938
			]
		},
		{
			"mesh":3,
			"name":"SM_Prop_TireStack_01.001",
			"rotation":[
				0,
				-0.9613134264945984,
				0,
				0.2754569351673126
			],
			"translation":[
				0.25605589151382446,
				0.02408754825592041,
				0.49872225522994995
			]
		}
	],
	"materials":[
		{
			"extensions":{
				"KHR_materials_clearcoat":{
					"clearcoatRoughnessFactor":0
				}
			},
			"name":"M_PolygonConstruction_01_A.002",
			"pbrMetallicRoughness":{
				"baseColorTexture":{
					"index":0
				},
				"metallicFactor":0,
				"roughnessFactor":0.800000011920929
			}
		},
		{
			"extensions":{
				"KHR_materials_clearcoat":{
					"clearcoatRoughnessFactor":0
				}
			},
			"name":"M_PolygonConstruction_01_A.001",
			"pbrMetallicRoughness":{
				"baseColorTexture":{
					"index":1
				},
				"metallicFactor":0,
				"roughnessFactor":0.800000011920929
			}
		},
		{
			"extensions":{
				"KHR_materials_clearcoat":{
					"clearcoatRoughnessFactor":0
				}
			},
			"name":"M_PolygonConstruction_01_A.003",
			"pbrMetallicRoughness":{
				"baseColorTexture":{
					"index":2
				},
				"metallicFactor":0,
				"roughnessFactor":0.800000011920929
			}
		}
	],
	"meshes":[
		{
			"name":"SM_Prop_Tractor_Tire_01.002",
			"primitives":[
				{
					"attributes":{
						"POSITION":0,
						"NORMAL":1,
						"TEXCOORD_0":2,
						"TEXCOORD_1":3
					},
					"indices":4,
					"material":0
				}
			]
		},
		{
			"name":"SM_Prop_TireStack_01.002",
			"primitives":[
				{
					"attributes":{
						"POSITION":5,
						"NORMAL":6,
						"TEXCOORD_0":7,
						"TEXCOORD_1":8
					},
					"indices":9,
					"material":0
				}
			]
		},
		{
			"name":"SM_Prop_Tractor_Tire_01.001",
			"primitives":[
				{
					"attributes":{
						"POSITION":10,
						"NORMAL":11,
						"TEXCOORD_0":12,
						"TEXCOORD_1":13
					},
					"indices":4,
					"material":1
				}
			]
		},
		{
			"name":"SM_Prop_TireStack_01.001",
			"primitives":[
				{
					"attributes":{
						"POSITION":14,
						"NORMAL":15,
						"TEXCOORD_0":16,
						"TEXCOORD_1":17
					},
					"indices":9,
					"material":2
				}
			]
		}
	],
	"textures":[
		{
			"sampler":0,
			"source":0
		},
		{
			"sampler":0,
			"source":0
		},
		{
			"sampler":0,
			"source":0
		}
	],
	"images":[
		{
			"mimeType":"image/png",
			"name":"T_PolygonConstruction_01_A",
			"uri":"T_PolygonConstruction_01_A.png"
		}
	],
	"accessors":[
		{
			"bufferView":0,
			"componentType":5126,
			"count":3088,
			"max":[
				0.8621413707733154,
				0.5250422358512878,
				0.8621399998664856
			],
			"min":[
				-0.8621412515640259,
				-7.629394360719743e-08,
				-0.8621421456336975
			],
			"type":"VEC3"
		},
		{
			"bufferView":1,
			"componentType":5126,
			"count":3088,
			"type":"VEC3"
		},
		{
			"bufferView":2,
			"componentType":5126,
			"count":3088,
			"type":"VEC2"
		},
		{
			"bufferView":3,
			"componentType":5126,
			"count":3088,
			"type":"VEC2"
		},
		{
			"bufferView":4,
			"componentType":5123,
			"count":4566,
			"type":"SCALAR"
		},
		{
			"bufferView":5,
			"componentType":5126,
			"count":1168,
			"max":[
				0.7147167921066284,
				0.6827341914176941,
				0.36601224541664124
			],
			"min":[
				-0.3622715175151825,
				-0.03251037374138832,
				-0.36601194739341736
			],
			"type":"VEC3"
		},
		{
			"bufferView":6,
			"componentType":5126,
			"count":1168,
			"type":"VEC3"
		},
		{
			"bufferView":7,
			"componentType":5126,
			"count":1168,
			"type":"VEC2"
		},
		{
			"bufferView":8,
			"componentType":5126,
			"count":1168,
			"type":"VEC2"
		},
		{
			"bufferView":9,
			"componentType":5123,
			"count":1728,
			"type":"SCALAR"
		},
		{
			"bufferView":10,
			"componentType":5126,
			"count":3088,
			"max":[
				0.8621413707733154,
				0.5250422358512878,
				0.8621399998664856
			],
			"min":[
				-0.8621412515640259,
				-7.629394360719743e-08,
				-0.8621421456336975
			],
			"type":"VEC3"
		},
		{
			"bufferView":11,
			"componentType":5126,
			"count":3088,
			"type":"VEC3"
		},
		{
			"bufferView":12,
			"componentType":5126,
			"count":3088,
			"type":"VEC2"
		},
		{
			"bufferView":13,
			"componentType":5126,
			"count":3088,
			"type":"VEC2"
		},
		{
			"bufferView":14,
			"componentType":5126,
			"count":1168,
			"max":[
				0.7147167921066284,
				0.6827341914176941,
				0.36601224541664124
			],
			"min":[
				-0.3622715175151825,
				-0.03251037374138832,
				-0.36601194739341736
			],
			"type":"VEC3"
		},
		{
			"bufferView":15,
			"componentType":5126,
			"count":1168,
			"type":"VEC3"
		},
		{
			"bufferView":16,
			"componentType":5126,
			"count":1168,
			"type":"VEC2"
		},
		{
			"bufferView":17,
			"componentType":5126,
			"count":1168,
			"type":"VEC2"
		}
	],
	"bufferViews":[
		{
			"buffer":0,
			"byteLength":37056,
			"byteOffset":0,
			"target":34962
		},
		{
			"buffer":0,
			"byteLength":37056,
			"byteOffset":37056,
			"target":34962
		},
		{
			"buffer":0,
			"byteLength":24704,
			"byteOffset":74112,
			"target":34962
		},
		{
			"buffer":0,
			"byteLength":24704,
			"byteOffset":98816,
			"target":34962
		},
		{
			"buffer":0,
			"byteLength":9132,
			"byteOffset":123520,
			"target":34963
		},
		{
			"buffer":0,
			"byteLength":14016,
			"byteOffset":132652,
			"target":34962
		},
		{
			"buffer":0,
			"byteLength":14016,
			"byteOffset":146668,
			"target":34962
		},
		{
			"buffer":0,
			"byteLength":9344,
			"byteOffset":160684,
			"target":34962
		},
		{
			"buffer":0,
			"byteLength":9344,
			"byteOffset":170028,
			"target":34962
		},
		{
			"buffer":0,
			"byteLength":3456,
			"byteOffset":179372,
			"target":34963
		},
		{
			"buffer":0,
			"byteLength":37056,
			"byteOffset":182828,
			"target":34962
		},
		{
			"buffer":0,
			"byteLength":37056,
			"byteOffset":219884,
			"target":34962
		},
		{
			"buffer":0,
			"byteLength":24704,
			"byteOffset":256940,
			"target":34962
		},
		{
			"buffer":0,
			"byteLength":24704,
			"byteOffset":281644,
			"target":34962
		},
		{
			"buffer":0,
			"byteLength":14016,
			"byteOffset":306348,
			"target":34962
		},
		{
			"buffer":0,
			"byteLength":14016,
			"byteOffset":320364,
			"target":34962
		},
		{
			"buffer":0,
			"byteLength":9344,
			"byteOffset":334380,
			"target":34962
		},
		{
			"buffer":0,
			"byteLength":9344,
			"byteOffset":343724,
			"target":34962
		}
	],
	"samplers":[
		{
			"magFilter":9729,
			"minFilter":9987
		}
	],
	"buffers":[
		{
			"byteLength":353068,
			"uri":"tires.bin"
		}
	]
}
